<?xml version="1.0" standalone="no"?>
<!DOCTYPE svg PUBLIC "-//W3C//DTD SVG 20010904//EN"
 "http://www.w3.org/TR/2001/REC-SVG-20010904/DTD/svg10.dtd">
<svg version="1.0" xmlns="http://www.w3.org/2000/svg"
 width="849.000000pt" height="209.000000pt" viewBox="0 0 849.000000 209.000000"
 preserveAspectRatio="xMidYMid meet">

<g transform="translate(0.000000,209.000000) scale(0.100000,-0.100000)"
fill="#000000" stroke="none">
<path d="M515 1343 c-82 -142 -149 -265 -149 -273 0 -9 66 -132 148 -273 l148
-257 308 0 308 0 55 98 c30 53 55 101 55 106 0 5 4 12 9 15 14 9 136 224 136
238 0 39 34 -8 147 -204 146 -254 152 -262 176 -247 20 12 303 502 304 524 0
8 -67 130 -148 270 l-147 255 -313 3 c-171 1 -312 -2 -312 -6 0 -5 -39 -76
-86 -158 -47 -82 -86 -153 -87 -159 -1 -5 -5 -12 -8 -15 -4 -3 -24 -34 -44
-68 -20 -35 -41 -60 -45 -55 -5 4 -67 109 -138 233 -91 158 -136 226 -149 228
-16 2 -47 -45 -168 -255z"/>
<path d="M2710 1330 l0 -270 55 0 55 0 2 187 3 188 75 -135 c73 -131 76 -135
110 -138 l35 -3 75 136 75 136 3 -185 2 -186 55 0 55 0 0 270 0 270 -67 0 -68
0 -48 -88 c-26 -48 -63 -114 -81 -146 l-34 -59 -82 146 -82 147 -69 0 -69 0 0
-270z"/>
<path d="M3500 1330 l0 -270 50 0 50 0 0 270 0 270 -50 0 -50 0 0 -270z"/>
<path d="M3790 1330 l0 -270 165 0 165 0 0 50 0 50 -115 0 -115 0 0 220 0 220
-50 0 -50 0 0 -270z"/>
<path d="M4260 1330 l0 -270 165 0 165 0 0 50 0 50 -115 0 -115 0 0 220 0 220
-50 0 -50 0 0 -270z"/>
<path d="M4730 1330 l0 -270 180 0 180 0 0 50 0 50 -130 0 -130 0 0 60 0 60
115 0 115 0 0 50 0 50 -115 0 -115 0 0 60 0 60 125 0 125 0 0 50 0 50 -175 0
-175 0 0 -270z"/>
<path d="M5250 1330 l0 -270 55 0 55 0 0 177 0 176 123 -176 122 -176 58 -1
57 0 0 270 0 270 -55 0 -55 0 -2 -177 -3 -178 -120 175 -121 175 -57 3 -57 3
0 -271z"/>
<path d="M5900 1330 l0 -270 55 0 55 0 0 171 c0 136 3 169 13 161 6 -6 62 -83
122 -171 l110 -161 58 0 57 0 0 270 0 270 -55 0 -55 0 -2 -176 -3 -175 -120
175 -120 176 -57 0 -58 0 0 -270z"/>
<path d="M6550 1330 l0 -270 55 0 55 0 0 270 0 270 -55 0 -55 0 0 -270z"/>
<path d="M6840 1410 c0 -238 9 -266 105 -329 34 -22 51 -26 116 -26 67 0 81 3
125 30 31 20 58 47 74 75 24 43 25 53 28 243 l4 197 -56 0 -56 0 0 -181 c0
-166 -2 -184 -21 -215 -41 -67 -143 -67 -193 -1 -19 26 -21 44 -24 213 l-4
184 -49 0 -49 0 0 -190z"/>
<path d="M7470 1330 l0 -270 50 0 50 0 2 193 3 192 79 -143 78 -143 35 3 c34
3 38 8 112 140 l76 138 3 -190 2 -190 55 0 55 0 0 270 0 270 -69 0 -69 0 -82
-146 -83 -147 -33 59 c-18 32 -55 98 -81 146 l-48 88 -67 0 -68 0 0 -270z"/>
<path d="M2710 705 l0 -165 100 0 100 0 0 25 c0 24 -2 25 -75 25 l-75 0 0 140
0 140 -25 0 -25 0 0 -165z"/>
<path d="M3050 705 l0 -165 105 0 105 0 0 26 c0 23 -3 25 -37 24 -21 -1 -57
-2 -80 -1 l-43 1 0 45 0 45 70 0 c68 0 70 1 70 25 0 24 -2 25 -70 25 l-70 0 0
45 0 45 80 0 c79 0 80 0 80 25 l0 25 -105 0 -105 0 0 -165z"/>
<path d="M3485 850 c-58 -29 -90 -81 -89 -144 0 -28 8 -66 17 -84 22 -40 89
-86 117 -79 11 3 22 2 25 -3 7 -12 75 6 104 27 39 30 60 64 67 111 l7 42 -75
0 c-71 0 -74 -1 -76 -25 -2 -23 1 -25 43 -25 53 0 59 -17 21 -55 -82 -82 -224
1 -200 118 18 81 127 116 193 61 20 -17 40 -24 57 -22 l27 3 -28 34 c-53 62
-136 78 -210 41z"/>
<path d="M3959 861 c-1 -6 -2 -17 -3 -23 -1 -7 -4 -15 -7 -18 -6 -6 -109 -262
-109 -272 0 -5 11 -8 24 -8 19 0 27 8 36 35 l12 35 79 0 80 0 15 -35 c11 -27
20 -35 40 -35 30 0 33 -14 -44 180 -57 142 -59 145 -90 148 -18 2 -33 -2 -33
-7z m65 -125 c14 -37 26 -70 26 -72 0 -2 -25 -4 -55 -4 -52 0 -55 1 -52 23 2
12 9 34 15 50 7 15 17 39 22 53 6 15 12 25 14 23 3 -2 16 -35 30 -73z"/>
<path d="M4290 705 l0 -165 100 0 100 0 -2 25 c-2 24 -5 25 -75 25 l-73 0 0
140 0 140 -25 0 -25 0 0 -165z"/>
</g>
</svg>
