<?xml version="1.0" encoding="UTF-8" standalone="no"?>
<svg
   id="Layer_2"
   data-name="Layer 2"
   viewBox="0 0 1152.89 160.29"
   version="1.1"
   sodipodi:docname="Millennium-Legal-logo.svg"
   xmlns:inkscape="http://www.inkscape.org/namespaces/inkscape"
   xmlns:sodipodi="http://sodipodi.sourceforge.net/DTD/sodipodi-0.dtd"
   xmlns="http://www.w3.org/2000/svg"
   xmlns:svg="http://www.w3.org/2000/svg">
  <defs
     id="defs18" />
  <sodipodi:namedview
     id="namedview18"
     pagecolor="#ffffff"
     bordercolor="#000000"
     borderopacity="0.25"
     inkscape:showpageshadow="2"
     inkscape:pageopacity="0.0"
     inkscape:pagecheckerboard="0"
     inkscape:deskcolor="#d1d1d1" />
  <g
     id="Layer_1-2"
     data-name="Layer 1">
    <g
       id="g3">
      <path
         d="M138.65,157.25l43.51-75.36c.78-1.34.78-3.01,0-4.35L138.65,2.18c-.77-1.35-2.21-2.18-3.76-2.18s-2.99.83-3.76,2.18l-43.51,75.36c-.39.67-.59,1.42-.59,2.18s.2,1.5.59,2.18l43.51,75.36c.77,1.35,2.21,2.18,3.76,2.18s2.99-.83,3.76-2.18Z"
         style="fill: #9164cc;"
         id="path1" />
      <path
         d="M138.65,157.25c.78-1.34.78-3.01,0-4.35l-43.51-75.36L51.63,2.18c-.77-1.35-2.21-2.18-3.76-2.18s-2.99.83-3.76,2.18L.59,77.54c-.39.67-.59,1.42-.59,2.18s.2,1.5.59,2.18l43.51,75.36c.77,1.35,2.21,2.18,3.76,2.18h87.02c1.56,0,2.99-.83,3.76-2.18Z"
         style="fill: #011e41;"
         id="path2" />
      <path
         d="M225.67,157.25l43.51-75.36c.78-1.34.78-3.01,0-4.35L225.67,2.18c-.77-1.35-2.21-2.18-3.76-2.18h-87.02c-1.56,0-2.99.83-3.76,2.18-.39.67-.59,1.42-.59,2.18s.2,1.5.59,2.18l43.51,75.36,43.51,75.36c.77,1.35,2.21,2.18,3.76,2.18s2.99-.83,3.76-2.18Z"
         style="fill: #011e41;"
         id="path3" />
    </g>
    <g
       id="g8">
      <path
         d="M351.43,109.74h8.57v41.62h21.96v8.06h-30.53v-49.68Z"
         style="fill: #9164cc;"
         id="path4" />
      <path
         d="M401.66,109.74h32.33v8.06h-23.76v12.6h21.39v8.07h-21.39v12.89h24.12v8.06h-32.69v-49.68Z"
         style="fill: #9164cc;"
         id="path5" />
      <path
         d="M452.82,134.59c0-14.62,11.31-25.71,26.14-25.71,11.52,0,21.1,6.7,24.12,16.13h-9.58c-2.81-4.75-8.14-7.85-14.55-7.85-9.79,0-17.28,7.49-17.28,17.43s7.49,17.43,17.28,17.43c8.21,0,14.69-4.97,16.35-12.17h-14.62v-7.7h23.76v2.88c0,14.4-10.8,25.27-25.49,25.27s-26.14-11.09-26.14-25.71Z"
         style="fill: #9164cc;"
         id="path6" />
      <path
         d="M538.33,109.74h10.15l19.59,49.68h-9.43l-4.03-10.59h-22.61l-4.03,10.59h-9.22l19.59-49.68ZM551.57,140.92l-8.28-21.82-8.28,21.82h16.56Z"
         style="fill: #9164cc;"
         id="path7" />
      <path
         d="M587.11,109.74h8.57v41.62h21.96v8.06h-30.53v-49.68Z"
         style="fill: #9164cc;"
         id="path8" />
    </g>
    <g
       id="g18">
      <path
         d="M351.43,0h20.36l24.73,44.03L421.38,0h20.12v81.66h-16.33V24.02l-24.02,42.96h-9.35l-24.03-42.96v57.64h-16.33V0Z"
         style="fill: #011e41;"
         id="path9" />
      <path
         d="M468.91,0h16.33v81.66h-16.33V0Z"
         style="fill: #011e41;"
         id="path10" />
      <path
         d="M512.4,0h16.33v66.28h34.44v15.39h-50.77V0Z"
         style="fill: #011e41;"
         id="path11" />
      <path
         d="M582.57,0h16.33v66.28h34.44v15.39h-50.77V0Z"
         style="fill: #011e41;"
         id="path12" />
      <path
         d="M652.73,0h53.73v15.39h-37.4v17.52h33.49v15.39h-33.49v17.99h37.99v15.39h-54.32V0Z"
         style="fill: #011e41;"
         id="path13" />
      <path
         d="M731.29,0h16.57l37.16,53.73V0h16.33v81.66h-16.57l-37.16-53.73v53.73h-16.33V0Z"
         style="fill: #011e41;"
         id="path14" />
      <path
         d="M828.75,0h16.57l37.16,53.73V0h16.33v81.66h-16.57l-37.16-53.73v53.73h-16.33V0Z"
         style="fill: #011e41;"
         id="path15" />
      <path
         d="M926.16,0h16.33v81.66h-16.33V0Z"
         style="fill: #011e41;"
         id="path16" />
      <path
         d="M968.76,50.06V0h16.33v49.82c0,9.94,7.46,17.52,17.51,17.52s17.52-7.57,17.52-17.52V0h16.33v50.06c0,18.82-14.56,33.02-33.85,33.02s-33.85-14.2-33.85-33.02Z"
         style="fill: #011e41;"
         id="path17" />
      <path
         d="M1062.83,0h20.36l24.73,44.03,24.85-44.03h20.12v81.66h-16.33V24.02l-24.03,42.96h-9.35l-24.02-42.96v57.64h-16.33V0Z"
         style="fill: #011e41;"
         id="path18" />
    </g>
  </g>
</svg>
